<svg xmlns="http://www.w3.org/2000/svg" xmlns:xlink="http://www.w3.org/1999/xlink" width="22" height="17" viewBox="0 0 22 17">
  <defs>
    <clipPath id="clip-path">
      <rect width="22" height="17" fill="none"/>
    </clipPath>
  </defs>
  <g id="Header" clip-path="url(#clip-path)">
    <path id="Menu" d="M-808.5,17a1.5,1.5,0,0,1-1.5-1.5,1.5,1.5,0,0,1,1.5-1.5h19a1.5,1.5,0,0,1,1.5,1.5,1.5,1.5,0,0,1-1.5,1.5Zm0-7A1.5,1.5,0,0,1-810,8.5,1.5,1.5,0,0,1-808.5,7h19A1.5,1.5,0,0,1-788,8.5a1.5,1.5,0,0,1-1.5,1.5Zm0-7A1.5,1.5,0,0,1-810,1.5,1.5,1.5,0,0,1-808.5,0h19A1.5,1.5,0,0,1-788,1.5,1.5,1.5,0,0,1-789.5,3Z" transform="translate(810)" fill="#ededed"/>
  </g>
</svg>
