<svg xmlns="http://www.w3.org/2000/svg" xmlns:xlink="http://www.w3.org/1999/xlink" width="168.95" height="156.38" viewBox="0 0 168.95 156.38">
  <defs>
    <linearGradient id="linear-gradient" y1="0.5" x2="1" y2="0.5" gradientUnits="objectBoundingBox">
      <stop offset="0.289" stop-color="#685d44"/>
      <stop offset="1" stop-color="#c8bb9b"/>
    </linearGradient>
  </defs>
  <g id="Group_494" data-name="Group 494" transform="translate(-316.281 -113.105)">
    <g id="Group_476" data-name="Group 476" transform="translate(316.281 207.4)">
      <g id="Group_475" data-name="Group 475">
        <path id="Path_209" data-name="Path 209" d="M316.281,177.795h4.5v2.975h-1.8v2.817h1.689v2.828h-1.689v3.267h1.983v2.975h-4.681Z" transform="translate(-316.281 -177.483)" fill="#231815"/>
        <path id="Path_210" data-name="Path 210" d="M325.805,182.392H323.3v-1.1a3,3,0,0,0-.1-.983.331.331,0,0,0-.32-.212.4.4,0,0,0-.37.287,2.28,2.28,0,0,0-.124.861,3.394,3.394,0,0,0,.14,1.122,2.46,2.46,0,0,0,.763.908,8.969,8.969,0,0,1,2.271,2.514,7.836,7.836,0,0,1,.468,3.166,7.744,7.744,0,0,1-.259,2.34,2.531,2.531,0,0,1-1,1.264,3,3,0,0,1-1.732.507,2.948,2.948,0,0,1-1.85-.586,2.7,2.7,0,0,1-1-1.5,10.786,10.786,0,0,1-.237-2.578v-.974h2.508v1.808a3.34,3.34,0,0,0,.105,1.075.378.378,0,0,0,.376.238.429.429,0,0,0,.4-.3,2.363,2.363,0,0,0,.132-.9,3.771,3.771,0,0,0-.25-1.714,9.051,9.051,0,0,0-1.265-1.35,14.1,14.1,0,0,1-1.334-1.386,3.622,3.622,0,0,1-.541-1.193,7.271,7.271,0,0,1-.215-1.945,7.418,7.418,0,0,1,.306-2.5,2.512,2.512,0,0,1,.984-1.236,2.927,2.927,0,0,1,1.642-.445,3.189,3.189,0,0,1,1.791.487,2.3,2.3,0,0,1,.981,1.224,9.067,9.067,0,0,1,.241,2.511Z" transform="translate(-314.626 -177.582)" fill="#231815"/>
        <path id="Path_211" data-name="Path 211" d="M330.242,177.795v2.975h-1.6v11.887h-2.7V180.77h-1.6v-2.975Z" transform="translate(-312.554 -177.483)" fill="#231815"/>
      </g>
    </g>
    <g id="Group_478" data-name="Group 478" transform="translate(334.373 207.653)">
      <g id="Group_477" data-name="Group 477">
        <path id="Path_212" data-name="Path 212" d="M328.652,177.755h2.056a11.375,11.375,0,0,1,2.692.206,2.027,2.027,0,0,1,1.068.68,2.279,2.279,0,0,1,.458,1.052,18.146,18.146,0,0,1,.091,2.276v4.184a10.949,10.949,0,0,1-.135,2.151,1.662,1.662,0,0,1-.467.848,1.815,1.815,0,0,1-.822.427,6.546,6.546,0,0,1-1.476.123h-3.466ZM331.4,179.8v7.859c.4,0,.639-.091.731-.271a4.466,4.466,0,0,0,.136-1.465v-4.64a6.781,6.781,0,0,0-.045-1.04.489.489,0,0,0-.209-.336A1.208,1.208,0,0,0,331.4,179.8Z" transform="translate(-328.652 -177.755)" fill="#231815"/>
      </g>
    </g>
    <g id="Group_479" data-name="Group 479" transform="translate(459.03 207.552)">
      <path id="Path_213" data-name="Path 213" d="M418.46,177.878V192.6h-2.7v-7.894a18.607,18.607,0,0,0-.06-2.055.743.743,0,0,0-.331-.522,2.586,2.586,0,0,0-1.206-.177h-.269v-1.717a4.9,4.9,0,0,0,2.978-2.359Z" transform="translate(-413.89 -177.597)" fill="#231815"/>
      <path id="Path_214" data-name="Path 214" d="M422.9,184.337a2.181,2.181,0,0,1,.917.978,8.933,8.933,0,0,1,.322,3.1,9.916,9.916,0,0,1-.255,2.631,2.625,2.625,0,0,1-.99,1.386,3.26,3.26,0,0,1-1.973.541,3.15,3.15,0,0,1-1.908-.518,2.866,2.866,0,0,1-1.008-1.375,9.418,9.418,0,0,1-.3-2.847,15.439,15.439,0,0,1,.152-2.319,2.328,2.328,0,0,1,.945-1.575,1.972,1.972,0,0,1-.752-1.04,5.517,5.517,0,0,1-.25-1.813,4.438,4.438,0,0,1,.775-2.849,2.823,2.823,0,0,1,2.322-.949,2.77,2.77,0,0,1,2.469,1.008,5.125,5.125,0,0,1,.682,2.881,4.759,4.759,0,0,1-.224,1.718A2.7,2.7,0,0,1,422.9,184.337Zm-1.465,2.96a3.138,3.138,0,0,0-.127-1.122.419.419,0,0,0-.4-.279.4.4,0,0,0-.385.269,3.41,3.41,0,0,0-.117,1.132v1.91a3.52,3.52,0,0,0,.13,1.228.43.43,0,0,0,.411.272.382.382,0,0,0,.389-.278,4.692,4.692,0,0,0,.1-1.25Zm-.053-6.119a3.241,3.241,0,0,0-.1-.987.367.367,0,0,0-.371-.241.356.356,0,0,0-.361.26,3.271,3.271,0,0,0-.1.968V182.3a2.7,2.7,0,0,0,.107.918.369.369,0,0,0,.361.254.354.354,0,0,0,.361-.25,3.526,3.526,0,0,0,.1-1.031Z" transform="translate(-412.126 -177.686)" fill="#231815"/>
      <path id="Path_215" data-name="Path 215" d="M428.609,190.18v2.511H422.66v-2.1q2.643-5.873,3.143-7.27a7.069,7.069,0,0,0,.5-2.179,2.04,2.04,0,0,0-.152-.9.485.485,0,0,0-.458-.3.491.491,0,0,0-.461.328,3.672,3.672,0,0,0-.149,1.3v1.4H422.66v-.537a15.679,15.679,0,0,1,.1-1.951,4.09,4.09,0,0,1,.461-1.405,2.633,2.633,0,0,1,.958-1.046,2.687,2.687,0,0,1,1.41-.354,2.871,2.871,0,0,1,2.439,1.087,4.41,4.41,0,0,1,.826,2.751,8.536,8.536,0,0,1-.465,2.673,60.293,60.293,0,0,1-2.741,5.983Z" transform="translate(-409.834 -177.686)" fill="#231815"/>
      <path id="Path_216" data-name="Path 216" d="M433.822,182.951v4.911a15.491,15.491,0,0,1-.135,2.436,3.848,3.848,0,0,1-.556,1.429,2.521,2.521,0,0,1-1.016.954,2.983,2.983,0,0,1-1.331.291,3.757,3.757,0,0,1-1.613-.3,2.323,2.323,0,0,1-1.024-.951,4.661,4.661,0,0,1-.541-1.359,11.457,11.457,0,0,1-.161-2.27v-5.138a13.2,13.2,0,0,1,.257-3.038,2.944,2.944,0,0,1,1.024-1.619,2.893,2.893,0,0,1,1.856-.608,3.018,3.018,0,0,1,1.593.423,2.873,2.873,0,0,1,1.051,1.032,4.069,4.069,0,0,1,.471,1.373A16.8,16.8,0,0,1,433.822,182.951Zm-2.7-1.237a7.5,7.5,0,0,0-.082-1.468.371.371,0,0,0-.392-.3.389.389,0,0,0-.4.314,6.417,6.417,0,0,0-.1,1.449V188.9a7.2,7.2,0,0,0,.091,1.546.373.373,0,0,0,.391.263.385.385,0,0,0,.4-.31,6.292,6.292,0,0,0,.092-1.391Z" transform="translate(-407.621 -177.686)" fill="#231815"/>
    </g>
    <rect id="Rectangle_602" data-name="Rectangle 602" width="6.065" height="1.544" transform="translate(334.269 221.177)" fill="#231815"/>
    <g id="Group_485" data-name="Group 485" transform="translate(354.283 113.105)">
      <g id="Group_480" data-name="Group 480">
        <path id="Path_217" data-name="Path 217" d="M401.358,175.354c-2.521-33.209-13.776-58.255-27.284-58.255-15.362,0-27.816,32.392-27.816,72.349S358.713,261.8,374.075,261.8c8.206,0,15.581-9.249,20.672-23.951.712.048,1.429.082,2.154.082a31.446,31.446,0,0,0,4.458-62.574Z" transform="translate(-340.419 -111.258)" fill="#231815"/>
        <path id="Path_218" data-name="Path 218" d="M375.921,269.485c-21.861,0-33.655-40.285-33.655-78.19s11.795-78.19,33.655-78.19c18.632,0,29.654,29.09,32.719,59.273a37.287,37.287,0,0,1-8,73.19C394.462,261.034,385.774,269.485,375.921,269.485Zm0-144.7c-9.175,0-21.975,25.3-21.975,66.508s12.8,66.508,21.975,66.508c4.993,0,10.942-7.859,15.152-20.021l1.461-4.219,4.455.3c.684.047,1.243.069,1.758.069a25.6,25.6,0,0,0,3.637-50.95l-4.648-.66-.355-4.681c-1.179-15.521-4.374-29.574-9-39.57C384.532,129.754,379.876,124.787,375.921,124.787Z" transform="translate(-342.266 -113.105)" fill="url(#linear-gradient)"/>
      </g>
      <g id="Group_481" data-name="Group 481" transform="translate(2.434 2.435)">
        <ellipse id="Ellipse_51" data-name="Ellipse 51" cx="27.816" cy="72.349" rx="27.816" ry="72.349" transform="translate(3.407 3.407)" fill="#231815"/>
        <path id="Path_219" data-name="Path 219" d="M375.152,266.282c-8.939,0-17.052-8.3-22.848-23.374-5.4-14.047-8.374-32.649-8.374-52.382s2.973-38.335,8.374-52.381c5.8-15.074,13.909-23.374,22.848-23.374s17.054,8.3,22.848,23.374c5.4,14.045,8.375,32.648,8.375,52.381S403.4,228.86,398,242.907C392.206,257.981,384.092,266.282,375.152,266.282Zm0-144.7c-11.545,0-24.408,28.313-24.408,68.942,0,18.918,2.814,36.652,7.921,49.935,4.643,12.078,10.654,19.006,16.488,19.006,11.545,0,24.408-28.313,24.408-68.942,0-18.917-2.812-36.651-7.919-49.936C387,128.511,380.986,121.584,375.152,121.584Z" transform="translate(-343.93 -114.77)" fill="#231815"/>
      </g>
      <g id="Group_483" data-name="Group 483" transform="translate(5.799 5.737)">
        <g id="Group_482" data-name="Group 482">
          <path id="Path_220" data-name="Path 220" d="M372.349,226.5V236.9H363.1V148.308H374.3v36.126a31.616,31.616,0,0,1,22.724-9.6,32.125,32.125,0,0,1,4.237.29c-2.531-33.126-13.766-58.1-27.245-58.1-15.343,0-27.781,32.354-27.781,72.264s12.438,72.264,27.781,72.264c8.1,0,15.379-9.012,20.457-23.38A31.671,31.671,0,0,1,372.349,226.5Z" transform="translate(-346.231 -117.028)" fill="#b53325"/>
        </g>
      </g>
      <g id="Group_484" data-name="Group 484" transform="translate(41.326 80.009)">
        <circle id="Ellipse_52" data-name="Ellipse 52" cx="15.263" cy="15.263" r="15.263" fill="#af9f73"/>
      </g>
    </g>
  </g>
</svg>
