<svg id="social03" xmlns="http://www.w3.org/2000/svg" width="83" height="83" viewBox="0 0 83 83">
  <defs>
    <style>
      .cls-1 {
        fill: #92845e;
      }

      .cls-2 {
        fill: #fff;
      }
      #social03 { cursor: pointer; }
      #social03:hover .cls-1 { fill: #b53325 !important; }
    </style>
  </defs>
  <title>social03</title>
  <path class="cls-1" d="M83,41.5A41.5,41.5,0,1,1,41.5,0,41.5,41.5,0,0,1,83,41.5Z"/>
  <path id="path9-5" class="cls-2" d="M30.87,41.24a10.36,10.36,0,0,0,.52,1.2c1.23,2.22,3.59,3.6,7.56,4a3.43,3.43,0,0,0-1.34,2.2,4.4,4.4,0,0,1-3.27.26c-1.56-.49-2.16-3.59-4.5-3.15-.51.1-.41.43,0,.72a4.59,4.59,0,0,1,1.91,2.27,3.83,3.83,0,0,0,3.88,2.63,11.22,11.22,0,0,0,1.78-.13s0,2.41,0,3.35S36,56,36,56.47c0,.21.49.23.87.23.77,0,2.37-.64,2.37-1.77,0-.89,0-3.89,0-4.41A1.68,1.68,0,0,1,39.87,49s.07,6.12-.15,6.94-.74.83-.74,1.26c0,.64,1.93.16,2.56-1.25.49-1.09.28-7.1.28-7.1h.52s0,2.75,0,4-.11,2.94.66,3.72c.51.51,2.16,1.41,2.16.59,0-.48-.9-.87-.9-2.15V49.09c.72,0,.61,1.95.61,1.95l0,3.62a1.84,1.84,0,0,0,1.43,1.87c.56.2,1.76.25,1.81-.08s-1.44-.82-1.45-1.84c0-.62,0-1,0-3.69s-.36-3.71-1.63-4.51c3.91-.4,6.34-1.37,7.51-4a3.67,3.67,0,0,0,.43-1.21,14.44,14.44,0,0,0,.44-3.5,7.92,7.92,0,0,0-2.13-5.65c.51-2.81-.08-4.09-.35-4.53-1-.36-3.51.92-4.88,1.82-2.22-.64-6.92-.58-8.69.17-3.25-2.33-5-2-5-2a6.82,6.82,0,0,0-.3,4.91,6.6,6.6,0,0,0-1.87,4.89,11.83,11.83,0,0,0,.56,3.86Z"/>
</svg>
