<svg id="social01" xmlns="http://www.w3.org/2000/svg" width="83" height="83" viewBox="0 0 83 83">
  <defs>
    <style>
      .cls-1 {
        fill: #313131;
      }

      .cls-2 {
        fill: #fff;
      }

      .cls-3 {
        fill: #92845e;
      }
      #social01 { cursor: pointer; }
      #social01:hover .cls-3 { fill: #b53325 !important; }
    </style>
  </defs>
  <title>social4대지 1</title>
  <g id="wordpress">
    <path class="cls-1" d="M65.5,41.5a24,24,0,1,1-24-24A24,24,0,0,1,65.5,41.5Z"/>
    <path class="cls-2" d="M26.91,34.39a2.48,2.48,0,0,1,1.41.36,4.81,4.81,0,0,1,.78,1.49c1.69,4.29,5.3,11.94,7,16.3.51,1.19,1.14,1.38,1.91,0s2.4-5,3.56-7.53c1.09,2.53,2.58,6,3.3,7.51.57,1.24,1.22,1.36,1.88,0,1.73-4,6.77-16.21,6.77-16.21a3.23,3.23,0,0,1,.92-1.39,2.85,2.85,0,0,1,1.78-.55c.17,0,.23-.08.23-.24v-.57l0-.07h-6.2l-.45.07v.57c0,.07.21.13.27.17a.68.68,0,0,0,.28.07l.56,0a1.44,1.44,0,0,1,1.08.39c.24.23.28.62.09,1.18L46.63,49.68l-.21-.06-3.48-7.51.08-.17,2.85-5.62c.33-.59.65-1.12.81-1.36.3-.46.45-.54,1.26-.58.16,0,.23-.08.23-.24v-.56l-.05-.06s-3.4,0-5,0v.62c0,.07,0,.13,0,.17s.08.07.15.07l.23,0c.64,0,.92.2,1,.31s.23.41-.14,1.25l-2.2,4.6-2-4.27c-.65-1.36-.81-1.79.17-1.87l.26,0c.2,0,.16-.08.16-.21v-.6l0,0H35.52l0,0v.6c0,.14.14.17.39.21.92.12.91.22,1.82,2.12l.53,1.14,2.07,4.28s.23.55.6,1.4l-3,6.31-.17,0s-4.67-10.36-6-13.82a2.46,2.46,0,0,1-.2-.79q0-.52.9-.57l.92,0c.19,0,.49-.08.49-.23v-.57l-.27-.06H26.69l-.19.06v.6C26.5,34.29,26.65,34.36,26.91,34.39Z"/>
    <path class="cls-1" d="M65.5,41.5a24,24,0,1,1-24-24A24,24,0,0,1,65.5,41.5Z"/>
    <path class="cls-2" d="M26.91,34.39a2.48,2.48,0,0,1,1.41.36,4.81,4.81,0,0,1,.78,1.49c1.69,4.29,5.3,11.94,7,16.3.51,1.19,1.14,1.38,1.91,0s2.4-5,3.56-7.53c1.09,2.53,2.58,6,3.3,7.51.57,1.24,1.22,1.36,1.88,0,1.73-4,6.77-16.21,6.77-16.21a3.23,3.23,0,0,1,.92-1.39,2.85,2.85,0,0,1,1.78-.55c.17,0,.23-.08.23-.24v-.57l0-.07h-6.2l-.45.07v.57c0,.07.21.13.27.17a.68.68,0,0,0,.28.07l.56,0a1.44,1.44,0,0,1,1.08.39c.24.23.28.62.09,1.18L46.63,49.68l-.21-.06-3.48-7.51.08-.17,2.85-5.62c.33-.59.65-1.12.81-1.36.3-.46.45-.54,1.26-.58.16,0,.23-.08.23-.24v-.56l-.05-.06s-3.4,0-5,0v.62c0,.07,0,.13,0,.17s.08.07.15.07l.23,0c.64,0,.92.2,1,.31s.23.41-.14,1.25l-2.2,4.6-2-4.27c-.65-1.36-.81-1.79.17-1.87l.26,0c.2,0,.16-.08.16-.21v-.6l0,0H35.52l0,0v.6c0,.14.14.17.39.21.92.12.91.22,1.82,2.12l.53,1.14,2.07,4.28s.23.55.6,1.4l-3,6.31-.17,0s-4.67-10.36-6-13.82a2.46,2.46,0,0,1-.2-.79q0-.52.9-.57l.92,0c.19,0,.49-.08.49-.23v-.57l-.27-.06H26.69l-.19.06v.6C26.5,34.29,26.65,34.36,26.91,34.39Z"/>
    <path class="cls-3" d="M83,41.5A41.5,41.5,0,1,1,41.5,0,41.5,41.5,0,0,1,83,41.5Z"/>
    <path class="cls-2" d="M26.91,34.39a2.48,2.48,0,0,1,1.41.36,4.81,4.81,0,0,1,.78,1.49c1.69,4.29,5.3,11.94,7,16.3.51,1.19,1.14,1.38,1.91,0s2.4-5,3.56-7.53c1.09,2.53,2.58,6,3.3,7.51.57,1.24,1.22,1.36,1.88,0,1.73-4,6.77-16.21,6.77-16.21a3.23,3.23,0,0,1,.92-1.39,2.85,2.85,0,0,1,1.78-.55c.17,0,.23-.08.23-.24v-.57l0-.07h-6.2l-.45.07v.57c0,.07.21.13.27.17a.68.68,0,0,0,.28.07l.56,0a1.44,1.44,0,0,1,1.08.39c.24.23.28.62.09,1.18L46.63,49.68l-.21-.06-3.48-7.51.08-.17,2.85-5.62c.33-.59.65-1.12.81-1.36.3-.46.45-.54,1.26-.58.16,0,.23-.08.23-.24v-.56l-.05-.06s-3.4,0-5,0v.62c0,.07,0,.13,0,.17s.08.07.15.07l.23,0c.64,0,.92.2,1,.31s.23.41-.14,1.25l-2.2,4.6-2-4.27c-.65-1.36-.81-1.79.17-1.87l.26,0c.2,0,.16-.08.16-.21v-.6l0,0H35.52l0,0v.6c0,.14.14.17.39.21.92.12.91.22,1.82,2.12l.53,1.14,2.07,4.28s.23.55.6,1.4l-3,6.31-.17,0s-4.67-10.36-6-13.82a2.46,2.46,0,0,1-.2-.79q0-.52.9-.57l.92,0c.19,0,.49-.08.49-.23v-.57l-.27-.06H26.69l-.19.06v.6C26.5,34.29,26.65,34.36,26.91,34.39Z"/>
  </g>
</svg>
