<svg xmlns="http://www.w3.org/2000/svg" width="83" height="83" viewBox="0 0 83 83">
  <g id="Group_522" data-name="Group 522" transform="translate(-560 -1762)">
    <circle id="Ellipse_37" data-name="Ellipse 37" cx="41.5" cy="41.5" r="41.5" transform="translate(560 1762)" fill="#92845e"/>
    <g id="Group_470" data-name="Group 470" transform="translate(41.309 1169.086)">
      <path id="Path_197" data-name="Path 197" d="M549.725,629.994c.006,1.41.034,2.829.042,4.246q0,2.289.006,4.575a10.94,10.94,0,0,0,9.342,10.961c1.506,0,7.4.138,8.459.138s4.117-.279,4.117-3.337-2.166-4.155-3.627-4.155h-5.849c-4.161,0-4.826-1.823-4.826-3.513,0-.8.052-2.125.1-3.745h9.773c1.464,0,4.251-.594,4.251-3.243s-1.286-4.382-3.012-4.382h-10.89c-.012-3.819-.262-7.625-4.03-7.625a3.216,3.216,0,0,0-3.356,2.208c-.7,2.067-.514,4.488-.507,6.642C549.723,629.173,549.725,629.584,549.725,629.994Z" fill="#fff"/>
    </g>
  </g>
</svg>
