<svg xmlns="http://www.w3.org/2000/svg" width="83" height="83" viewBox="0 0 83 83">
  <g id="Group_521" data-name="Group 521" transform="translate(-462 -1762)">
    <path id="Path_253" data-name="Path 253" d="M41.5,0A41.5,41.5,0,1,1,0,41.5,41.5,41.5,0,0,1,41.5,0Z" transform="translate(462 1762)" fill="#92845e"/>
    <g id="Group_474" data-name="Group 474" transform="translate(-488.69 1169.086)">
      <rect id="Rectangle_589" data-name="Rectangle 589" width="7" height="20" transform="translate(977.69 629.914)" fill="#fff"/>
      <path id="Path_205" data-name="Path 205" d="M981.19,626.914a3.5,3.5,0,1,0-3.5-3.5A3.5,3.5,0,0,0,981.19,626.914Z" fill="#fff"/>
      <path id="Path_206" data-name="Path 206" d="M1007.69,638.923c0-5.4-1.164-9.009-7.455-9.009-3.023,0-5.052,1.123-5.882,2.7h-.086v-2.7H988.69v20h5.829V640c0-2.614.494-5.146,3.728-5.146,3.186,0,3.443,2.99,3.443,5.314v9.745h6Z" fill="#fff"/>
    </g>
  </g>
</svg>
